<?xml version="1.0" encoding="UTF-8"?>
<svg version="1.1" xmlns="http://www.w3.org/2000/svg" width="500" height="500">
<path d="M0 0 C165 0 330 0 500 0 C500 165 500 330 500 500 C335 500 170 500 0 500 C0 335 0 170 0 0 Z " fill="#000000" transform="translate(0,0)"/>
<path d="M0 0 C165 0 330 0 500 0 C500 165 500 330 500 500 C335 500 170 500 0 500 C0 335 0 170 0 0 Z M51 50 C51 182 51 314 51 450 C183 450 315 450 451 450 C451 318 451 186 451 50 C319 50 187 50 51 50 Z " fill="#79553A" transform="translate(0,0)"/>
<path d="M0 0 C9.9 0 19.8 0 30 0 C30 144.54 30 289.08 30 438 C-31.71 438 -93.42 438 -157 438 C-157 421.5 -157 405 -157 388 C-111.46 388 -65.92 388 -19 388 C-19 270.19 -19 152.38 -19 31 C-12.73 31 -6.46 31 0 31 C0 20.77 0 10.54 0 0 Z " fill="#765338" transform="translate(470,62)"/>
<path d="M0 0 C165 0 330 0 500 0 C500 20.46 500 40.92 500 62 C490.1 62 480.2 62 470 62 C470 72.23 470 82.46 470 93 C463.73 93 457.46 93 451 93 C451 78.81 451 64.62 451 50 C319 50 187 50 51 50 C51 53.96 51 57.92 51 62 C44.07 62 37.14 62 30 62 C30 72.23 30 82.46 30 93 C20.1 93 10.2 93 0 93 C0 62.31 0 31.62 0 0 Z " fill="#69A93F" transform="translate(0,0)"/>
<path d="M0 0 C72.6 0 145.2 0 220 0 C220 16.5 220 33 220 50 C137.17 50 54.34 50 -31 50 C-31 40.1 -31 30.2 -31 20 C-20.77 20 -10.54 20 0 20 C0 13.4 0 6.8 0 0 Z " fill="#4E3523" transform="translate(93,450)"/>
<path d="M0 0 C11.55 0 23.1 0 35 0 C49.76826965 33.95761365 64.43733965 67.95350442 79 102 C79.33 68.34 79.66 34.68 80 0 C87.92 0 95.84 0 104 0 C104 44.88 104 89.76 104 136 C92.78 136 81.56 136 70 136 C58.73020302 110.05020786 47.46276485 84.09949724 36.25 58.125 C35.84913177 57.19643188 35.44826355 56.26786377 35.0352478 55.31115723 C33.90350123 52.68929766 32.77197833 50.06734177 31.640625 47.4453125 C31.31349014 46.68717255 30.98635529 45.92903259 30.64930725 45.1479187 C30.34254562 44.43668854 30.035784 43.72545837 29.71972656 42.99267578 C29.45822815 42.38642365 29.19672974 41.78017151 28.92730713 41.1555481 C27.61500629 38.10507271 26.30811659 35.05227204 25 32 C24.67 66.32 24.34 100.64 24 136 C16.08 136 8.16 136 0 136 C0 91.12 0 46.24 0 0 Z " fill="#FAFAFA" transform="translate(190,110)"/>
<path d="M0 0 C69.7027027 0 69.7027027 0 81 11 C90.43290248 22.71893752 91.31816803 35.44231057 90 50 C87.84779001 61.45413451 81.4768207 70.33052516 72 77 C64.07098261 81.30973277 57.54116054 83.13363012 48.51171875 83.09765625 C47.22483154 83.09515869 45.93794434 83.09266113 44.61206055 83.09008789 C42.98695557 83.08098389 41.36185059 83.07187988 39.6875 83.0625 C34.510625 83.041875 29.33375 83.02125 24 83 C24 100.49 24 117.98 24 136 C16.08 136 8.16 136 0 136 C0 91.12 0 46.24 0 0 Z " fill="#FBFBFB" transform="translate(84,110)"/>
<path d="M0 0 C30.69 0 61.38 0 93 0 C93 9.9 93 19.8 93 30 C113.79 30 134.58 30 156 30 C156 36.6 156 43.2 156 50 C121.35 50 86.7 50 51 50 C51 53.96 51 57.92 51 62 C44.07 62 37.14 62 30 62 C30 72.23 30 82.46 30 93 C20.1 93 10.2 93 0 93 C0 62.31 0 31.62 0 0 Z " fill="#74B44A" transform="translate(0,0)"/>
<path d="M0 0 C51.81 0 103.62 0 157 0 C157 9.9 157 19.8 157 30 C167.56 30 178.12 30 189 30 C189 36.6 189 43.2 189 50 C147.42 50 105.84 50 63 50 C63 43.4 63 36.8 63 30 C42.21 30 21.42 30 0 30 C0 20.1 0 10.2 0 0 Z " fill="#60A036" transform="translate(93,0)"/>
<path d="M0 0 C9.9 0 19.8 0 30 0 C30 31.02 30 62.04 30 94 C20.1 94 10.2 94 0 94 C0 114.79 0 135.58 0 157 C-2.31 157 -4.62 157 -7 157 C-7 167.23 -7 177.46 -7 188 C-4.69 188 -2.38 188 0 188 C0 208.79 0 229.58 0 251 C-6.27 251 -12.54 251 -19 251 C-19 178.4 -19 105.8 -19 31 C-12.73 31 -6.46 31 0 31 C0 20.77 0 10.54 0 0 Z " fill="#735137" transform="translate(470,62)"/>
<path d="M0 0 C30.69 0 61.38 0 93 0 C93 20.46 93 40.92 93 62 C83.1 62 73.2 62 63 62 C63 72.23 63 82.46 63 93 C56.73 93 50.46 93 44 93 C44 78.81 44 64.62 44 50 C40.04 50 36.08 50 32 50 C32 43.4 32 36.8 32 30 C21.44 30 10.88 30 0 30 C0 20.1 0 10.2 0 0 Z " fill="#6AAA40" transform="translate(407,0)"/>
<path d="M0 0 C62.37 0 124.74 0 189 0 C189 8.58 189 17.16 189 26 C126.63 26 64.26 26 0 26 C0 17.42 0 8.84 0 0 Z " fill="#F8F8F8" transform="translate(84,362)"/>
<path d="M0 0 C16.17 0 32.34 0 49 0 C49 31.02 49 62.04 49 94 C28.87 94 8.74 94 -12 94 C-12 75 -12 75 -11 74 C-7.37 74 -3.74 74 0 74 C0 49.58 0 25.16 0 0 Z " fill="#8F6746" transform="translate(451,376)"/>
<path d="M0 0 C40.92 0 81.84 0 124 0 C124 9.9 124 19.8 124 30 C83.08 30 42.16 30 0 30 C0 20.1 0 10.2 0 0 Z " fill="#966C4A" transform="translate(376,470)"/>
<path d="M0 0 C6.93 0 13.86 0 21 0 C21 41.25 21 82.5 21 125 C14.07 125 7.14 125 0 125 C0 104.54 0 84.08 0 63 C-9.9 63 -19.8 63 -30 63 C-30 52.44 -30 41.88 -30 31 C-20.1 31 -10.2 31 0 31 C0 20.77 0 10.54 0 0 Z " fill="#6C6C6C" transform="translate(30,62)"/>
<path d="M0 0 C10.56 0 21.12 0 32 0 C32 6.6 32 13.2 32 20 C42.23 20 52.46 20 63 20 C63 29.9 63 39.8 63 50 C31.98 50 0.96 50 -31 50 C-31 40.1 -31 30.2 -31 20 C-20.77 20 -10.54 20 0 20 C0 13.4 0 6.8 0 0 Z " fill="#966C4A" transform="translate(93,450)"/>
<path d="M0 0 C20.79 0 41.58 0 63 0 C63 16.5 63 33 63 50 C42.21 50 21.42 50 0 50 C0 33.5 0 17 0 0 Z " fill="#966C4A" transform="translate(250,450)"/>
<path d="M0 0 C20.79 0 41.58 0 63 0 C63 9.9 63 19.8 63 30 C73.23 30 83.46 30 94 30 C94 36.6 94 43.2 94 50 C73.54 50 53.08 50 32 50 C32 43.4 32 36.8 32 30 C21.44 30 10.88 30 0 30 C0 20.1 0 10.2 0 0 Z " fill="#7EBE54" transform="translate(250,0)"/>
<path d="M0 0 C9.9 0 19.8 0 30 0 C30 31.02 30 62.04 30 94 C17.79 94 5.58 94 -7 94 C-7 83.77 -7 73.54 -7 63 C-4.69 63 -2.38 63 0 63 C0 42.21 0 21.42 0 0 Z " fill="#956B49" transform="translate(470,156)"/>
<path d="M0 0 C9.9 0 19.8 0 30 0 C30 31.02 30 62.04 30 94 C20.1 94 10.2 94 0 94 C0 62.98 0 31.96 0 0 Z " fill="#79553A" transform="translate(0,125)"/>
<path d="M0 0 C31.02 0 62.04 0 94 0 C94 9.9 94 19.8 94 30 C62.98 30 31.96 30 0 30 C0 20.1 0 10.2 0 0 Z " fill="#66A63C" transform="translate(93,0)"/>
<path d="M0 0 C6.93 0 13.86 0 21 0 C21 3.63 21 7.26 21 11 C34.86 11 48.72 11 63 11 C63 17.6 63 24.2 63 31 C52.77 31 42.54 31 32 31 C32 40.9 32 50.8 32 61 C21.44 61 10.88 61 0 61 C0 40.87 0 20.74 0 0 Z " fill="#785439" transform="translate(30,439)"/>
<path d="M0 0 C20.79 0 41.58 0 63 0 C63 16.5 63 33 63 50 C52.77 50 42.54 50 32 50 C32 40.1 32 30.2 32 20 C21.44 20 10.88 20 0 20 C0 13.4 0 6.8 0 0 Z " fill="#6B4B32" transform="translate(187,450)"/>
<path d="M0 0 C20.79 0 41.58 0 63 0 C63 9.9 63 19.8 63 30 C42.21 30 21.42 30 0 30 C0 20.1 0 10.2 0 0 Z " fill="#61A137" transform="translate(407,0)"/>
<path d="M0 0 C31.02 0 62.04 0 94 0 C94 6.6 94 13.2 94 20 C62.98 20 31.96 20 0 20 C0 13.4 0 6.8 0 0 Z " fill="#81B051" transform="translate(62,30)"/>
<path d="M0 0 C20.13 0 40.26 0 61 0 C61 9.9 61 19.8 61 30 C40.87 30 20.74 30 0 30 C0 20.1 0 10.2 0 0 Z " fill="#79553A" transform="translate(439,470)"/>
<path d="M0 0 C9.9 0 19.8 0 30 0 C30 20.13 30 40.26 30 61 C20.1 61 10.2 61 0 61 C0 40.87 0 20.74 0 0 Z " fill="#966C4A" transform="translate(0,439)"/>
<path d="M0 0 C28.84605634 -0.52447375 28.84605634 -0.52447375 37.0625 5.8125 C41.47463305 10.14019031 42.09683107 14.36115493 42.3125 20.375 C42.16843702 26.27357856 41.42708512 31.10591476 37.55859375 35.71875 C29.92500263 42.94498011 20.98565225 43.43278866 10.9375 43.1875 C7.328125 43.125625 3.71875 43.06375 0 43 C0 28.81 0 14.62 0 0 Z " fill="#050505" transform="translate(108,130)"/>
<path d="M0 0 C16.17 0 32.34 0 49 0 C49 10.56 49 21.12 49 32 C32.83 32 16.66 32 0 32 C0 21.44 0 10.88 0 0 Z " fill="#593D29" transform="translate(451,344)"/>
<path d="M0 0 C5.09154205 -1.25201854 10.11286257 -2.26797942 15 0 C19.86547032 5.10355964 22.90129155 11.73804023 25.90942383 18.05053711 C26.84895718 20.15874769 26.84895718 20.15874769 29 21 C29.24234375 20.34644531 29.4846875 19.69289062 29.734375 19.01953125 C32.51635944 12.3822659 35.63295244 4.95907393 41 0 C45.92829387 -1.36216818 50.02753835 -1.03174997 55 0 C51.41157301 6.65747638 47.09414056 12.75515861 42.75 18.9375 C42.00492187 20.00291016 41.25984375 21.06832031 40.4921875 22.16601562 C38.66411501 24.77922182 36.8333234 27.39047627 35 30 C36.39483463 32.93692937 37.99162627 35.58426525 39.828125 38.265625 C40.65763672 39.47798828 40.65763672 39.47798828 41.50390625 40.71484375 C42.08011719 41.55144531 42.65632813 42.38804687 43.25 43.25 C43.81074219 44.07113281 44.37148438 44.89226562 44.94921875 45.73828125 C48.14753442 50.39910616 51.43233735 54.9518836 54.92480469 59.39746094 C56 61 56 61 56 63 C51.24677656 64.28272896 46.57401363 65.15736299 42 63 C36.46244177 57.48614826 32.31449152 50.04058657 29 43 C29 42.34 29 41.68 29 41 C26.07560043 43.45272222 24.39384569 45.97079039 22.6953125 49.328125 C16.15085077 62.04344478 16.15085077 62.04344478 12.12255859 63.83496094 C7.98559692 64.56458745 4.0461977 63.95691099 0 63 C1.37048319 59.13080755 3.15186403 56.20381304 5.625 52.9375 C9.96831735 47.09621371 14.00226209 41.08106611 18 35 C18.66 34.01 19.32 33.02 20 32 C19.63984381 28.99696032 18.49013049 26.94814421 16.77734375 24.49609375 C16.09828979 23.51588257 16.09828979 23.51588257 15.40551758 22.51586914 C14.92107178 21.83000732 14.43662598 21.14414551 13.9375 20.4375 C13.44596436 19.73165771 12.95442871 19.02581543 12.44799805 18.29858398 C8.83046368 13.12236544 5.13176173 8.00884192 1.36328125 2.94140625 C0 1 0 1 0 0 Z " fill="#F7F7F7" transform="translate(317,111)"/>
<path d="M0 0 C6.93 0 13.86 0 21 0 C21 20.79 21 41.58 21 63 C14.07 63 7.14 63 0 63 C0 42.21 0 21.42 0 0 Z " fill="#79553A" transform="translate(30,344)"/>
<path d="M0 0 C6.93 0 13.86 0 21 0 C21 20.46 21 40.92 21 62 C14.07 62 7.14 62 0 62 C0 41.54 0 21.08 0 0 Z " fill="#966C4A" transform="translate(30,282)"/>
<path d="M0 0 C21.12 0 42.24 0 64 0 C63.67 6.6 63.34 13.2 63 20 C42.21 20 21.42 20 0 20 C0 13.4 0 6.8 0 0 Z " fill="#6B4B32" transform="translate(376,450)"/>
<path d="M0 0 C20.79 0 41.58 0 63 0 C63 6.6 63 13.2 63 20 C42.21 20 21.42 20 0 20 C0 13.4 0 6.8 0 0 Z " fill="#9A6E4C" transform="translate(250,450)"/>
<path d="M0 0 C20.79 0 41.58 0 63 0 C63 6.6 63 13.2 63 20 C42.21 20 21.42 20 0 20 C0 13.4 0 6.8 0 0 Z " fill="#68A83E" transform="translate(156,30)"/>
<path d="M0 0 C20.46 0 40.92 0 62 0 C62 6.6 62 13.2 62 20 C41.54 20 21.08 20 0 20 C0 13.4 0 6.8 0 0 Z " fill="#91C061" transform="translate(282,30)"/>
<path d="M0 0 C6.27 0 12.54 0 19 0 C19 20.79 19 41.58 19 63 C12.73 63 6.46 63 0 63 C0 42.21 0 21.42 0 0 Z " fill="#4E3523" transform="translate(451,250)"/>
<path d="M0 0 C6.27 0 12.54 0 19 0 C19 20.79 19 41.58 19 63 C12.73 63 6.46 63 0 63 C0 42.21 0 21.42 0 0 Z " fill="#4E3523" transform="translate(451,93)"/>
<path d="M0 0 C12.21 0 24.42 0 37 0 C37 10.23 37 20.46 37 31 C24.79 31 12.58 31 0 31 C0 20.77 0 10.54 0 0 Z " fill="#B8845B" transform="translate(463,376)"/>
<path d="M0 0 C10.56 0 21.12 0 32 0 C32 9.9 32 19.8 32 30 C21.44 30 10.88 30 0 30 C0 20.1 0 10.2 0 0 Z " fill="#878787" transform="translate(187,470)"/>
<path d="M0 0 C9.9 0 19.8 0 30 0 C30 10.56 30 21.12 30 32 C20.1 32 10.2 32 0 32 C0 21.44 0 10.88 0 0 Z " fill="#966C4A" transform="translate(0,344)"/>
<path d="M0 0 C9.9 0 19.8 0 30 0 C30 10.56 30 21.12 30 32 C20.1 32 10.2 32 0 32 C0 21.44 0 10.88 0 0 Z " fill="#79553A" transform="translate(470,250)"/>
<path d="M0 0 C9.9 0 19.8 0 30 0 C30 10.56 30 21.12 30 32 C20.1 32 10.2 32 0 32 C0 21.44 0 10.88 0 0 Z " fill="#966C4A" transform="translate(0,250)"/>
<path d="M0 0 C9.9 0 19.8 0 30 0 C30 10.56 30 21.12 30 32 C20.1 32 10.2 32 0 32 C0 21.44 0 10.88 0 0 Z " fill="#B9855C" transform="translate(0,187)"/>
<path d="M0 0 C9.9 0 19.8 0 30 0 C30 10.56 30 21.12 30 32 C20.1 32 10.2 32 0 32 C0 21.44 0 10.88 0 0 Z " fill="#593D29" transform="translate(0,93)"/>
<path d="M0 0 C10.56 0 21.12 0 32 0 C32 9.9 32 19.8 32 30 C21.44 30 10.88 30 0 30 C0 20.1 0 10.2 0 0 Z " fill="#5F9F35" transform="translate(187,0)"/>
<path d="M0 0 C10.23 0 20.46 0 31 0 C31 9.9 31 19.8 31 30 C20.77 30 10.54 30 0 30 C0 20.1 0 10.2 0 0 Z " fill="#79553A" transform="translate(219,470)"/>
<path d="M0 0 C10.23 0 20.46 0 31 0 C31 9.9 31 19.8 31 30 C20.77 30 10.54 30 0 30 C0 20.1 0 10.2 0 0 Z " fill="#79553A" transform="translate(156,470)"/>
<path d="M0 0 C10.23 0 20.46 0 31 0 C31 9.9 31 19.8 31 30 C20.77 30 10.54 30 0 30 C0 20.1 0 10.2 0 0 Z " fill="#B9855C" transform="translate(62,470)"/>
<path d="M0 0 C9.9 0 19.8 0 30 0 C30 10.23 30 20.46 30 31 C20.1 31 10.2 31 0 31 C0 20.77 0 10.54 0 0 Z " fill="#966C4A" transform="translate(470,282)"/>
<path d="M0 0 C9.9 0 19.8 0 30 0 C30 10.23 30 20.46 30 31 C20.1 31 10.2 31 0 31 C0 20.77 0 10.54 0 0 Z " fill="#B9855C" transform="translate(470,156)"/>
<path d="M0 0 C9.9 0 19.8 0 30 0 C30 10.23 30 20.46 30 31 C20.1 31 10.2 31 0 31 C0 20.77 0 10.54 0 0 Z " fill="#966C4A" transform="translate(0,125)"/>
<path d="M0 0 C9.9 0 19.8 0 30 0 C30 10.23 30 20.46 30 31 C20.1 31 10.2 31 0 31 C0 20.77 0 10.54 0 0 Z " fill="#593D29" transform="translate(470,62)"/>
<path d="M0 0 C9.9 0 19.8 0 30 0 C30 10.23 30 20.46 30 31 C20.1 31 10.2 31 0 31 C0 20.77 0 10.54 0 0 Z " fill="#8DBC5D" transform="translate(0,62)"/>
<path d="M0 0 C10.23 0 20.46 0 31 0 C31 9.9 31 19.8 31 30 C20.77 30 10.54 30 0 30 C0 20.1 0 10.2 0 0 Z " fill="#509026" transform="translate(439,0)"/>
<path d="M0 0 C10.23 0 20.46 0 31 0 C31 9.9 31 19.8 31 30 C20.77 30 10.54 30 0 30 C0 20.1 0 10.2 0 0 Z " fill="#76B64C" transform="translate(282,0)"/>
<path d="M0 0 C10.23 0 20.46 0 31 0 C31 9.9 31 19.8 31 30 C20.77 30 10.54 30 0 30 C0 20.1 0 10.2 0 0 Z " fill="#6CAC42" transform="translate(219,0)"/>
<path d="M0 0 C10.23 0 20.46 0 31 0 C31 9.9 31 19.8 31 30 C20.77 30 10.54 30 0 30 C0 20.1 0 10.2 0 0 Z " fill="#6FAF45" transform="translate(156,0)"/>
<path d="M0 0 C9.9 0 19.8 0 30 0 C30 9.9 30 19.8 30 30 C20.1 30 10.2 30 0 30 C0 20.1 0 10.2 0 0 Z " fill="#593D29" transform="translate(470,470)"/>
<path d="M0 0 C10.56 0 21.12 0 32 0 C32 6.6 32 13.2 32 20 C28.37 20 24.74 20 21 20 C21 23.96 21 27.92 21 32 C14.07 32 7.14 32 0 32 C0 21.44 0 10.88 0 0 Z " fill="#6CAC42" transform="translate(30,30)"/>
<path d="M0 0 C6.93 0 13.86 0 21 0 C21 10.56 21 21.12 21 32 C14.07 32 7.14 32 0 32 C0 21.44 0 10.88 0 0 Z " fill="#966C4A" transform="translate(30,407)"/>
<path d="M0 0 C6.93 0 13.86 0 21 0 C21 10.23 21 20.46 21 31 C14.07 31 7.14 31 0 31 C0 20.77 0 10.54 0 0 Z " fill="#593D29" transform="translate(30,376)"/>
<path d="M0 0 C6.93 0 13.86 0 21 0 C21 10.23 21 20.46 21 31 C14.07 31 7.14 31 0 31 C0 20.77 0 10.54 0 0 Z " fill="#593D29" transform="translate(30,156)"/>
<path d="M0 0 C6.93 0 13.86 0 21 0 C21 10.23 21 20.46 21 31 C14.07 31 7.14 31 0 31 C0 20.77 0 10.54 0 0 Z " fill="#79553A" transform="translate(30,125)"/>
<path d="M0 0 C6.93 0 13.86 0 21 0 C21 10.23 21 20.46 21 31 C14.07 31 7.14 31 0 31 C0 20.77 0 10.54 0 0 Z " fill="#593D29" transform="translate(30,62)"/>
<path d="M0 0 C10.56 0 21.12 0 32 0 C32 6.6 32 13.2 32 20 C21.44 20 10.88 20 0 20 C0 13.4 0 6.8 0 0 Z " fill="#7D593C" transform="translate(344,450)"/>
<path d="M0 0 C10.56 0 21.12 0 32 0 C32 6.6 32 13.2 32 20 C21.44 20 10.88 20 0 20 C0 13.4 0 6.8 0 0 Z " fill="#9A6E4C" transform="translate(93,450)"/>
<path d="M0 0 C10.56 0 21.12 0 32 0 C32 6.6 32 13.2 32 20 C21.44 20 10.88 20 0 20 C0 13.4 0 6.8 0 0 Z " fill="#73B349" transform="translate(344,30)"/>
<path d="M0 0 C10.23 0 20.46 0 31 0 C31 6.6 31 13.2 31 20 C20.77 20 10.54 20 0 20 C0 13.4 0 6.8 0 0 Z " fill="#4E3523" transform="translate(219,450)"/>
<path d="M0 0 C10.23 0 20.46 0 31 0 C31 6.6 31 13.2 31 20 C20.77 20 10.54 20 0 20 C0 13.4 0 6.8 0 0 Z " fill="#6B4B32" transform="translate(125,450)"/>
<path d="M0 0 C10.23 0 20.46 0 31 0 C31 6.6 31 13.2 31 20 C20.77 20 10.54 20 0 20 C0 13.4 0 6.8 0 0 Z " fill="#4F3623" transform="translate(62,450)"/>
<path d="M0 0 C10.23 0 20.46 0 31 0 C31 6.6 31 13.2 31 20 C20.77 20 10.54 20 0 20 C0 13.4 0 6.8 0 0 Z " fill="#61A137" transform="translate(376,30)"/>
<path d="M0 0 C10.23 0 20.46 0 31 0 C31 6.6 31 13.2 31 20 C20.77 20 10.54 20 0 20 C0 13.4 0 6.8 0 0 Z " fill="#593D29" transform="translate(156,30)"/>
<path d="M0 0 C10.23 0 20.46 0 31 0 C31 6.6 31 13.2 31 20 C20.77 20 10.54 20 0 20 C0 13.4 0 6.8 0 0 Z " fill="#8AB95A" transform="translate(62,30)"/>
<path d="M0 0 C6.27 0 12.54 0 19 0 C19 10.56 19 21.12 19 32 C12.73 32 6.46 32 0 32 C0 21.44 0 10.88 0 0 Z " fill="#6B4A32" transform="translate(451,344)"/>
<path d="M0 0 C6.27 0 12.54 0 19 0 C19 10.23 19 20.46 19 31 C12.73 31 6.46 31 0 31 C0 20.77 0 10.54 0 0 Z " fill="#777777" transform="translate(451,313)"/>
<path d="M0 0 C6.27 0 12.54 0 19 0 C19 10.23 19 20.46 19 31 C12.73 31 6.46 31 0 31 C0 20.77 0 10.54 0 0 Z " fill="#6B4A32" transform="translate(451,282)"/>
<path d="M0 0 C6.27 0 12.54 0 19 0 C19 10.23 19 20.46 19 31 C12.73 31 6.46 31 0 31 C0 20.77 0 10.54 0 0 Z " fill="#558E2F" transform="translate(451,62)"/>
<path d="M0 0 C20.79 0 41.58 0 63 0 C63 2.64 63 5.28 63 8 C42.21 8 21.42 8 0 8 C0 5.36 0 2.72 0 0 Z " fill="#B6825A" transform="translate(250,462)"/>
<path d="M0 0 C3.96 0 7.92 0 12 0 C12 10.23 12 20.46 12 31 C8.04 31 4.08 31 0 31 C0 20.77 0 10.54 0 0 Z " fill="#9A6E4C" transform="translate(451,376)"/>
<path d="M0 0 C3.96 0 7.92 0 12 0 C12 10.23 12 20.46 12 31 C8.04 31 4.08 31 0 31 C0 20.77 0 10.54 0 0 Z " fill="#7D593C" transform="translate(451,219)"/>
<path d="M0 0 C10.56 0 21.12 0 32 0 C32 2.64 32 5.28 32 8 C21.44 8 10.88 8 0 8 C0 5.36 0 2.72 0 0 Z " fill="#936A48" transform="translate(344,462)"/>
<path d="M0 0 C10.56 0 21.12 0 32 0 C32 2.64 32 5.28 32 8 C21.44 8 10.88 8 0 8 C0 5.36 0 2.72 0 0 Z " fill="#B6825A" transform="translate(93,462)"/>
</svg>
